<?xml version="1.0" standalone="no"?>
<!DOCTYPE svg PUBLIC "-//W3C//DTD SVG 1.1//EN" "http://www.w3.org/Graphics/SVG/1.1/DTD/svg11.dtd" >
<svg xmlns="http://www.w3.org/2000/svg">
<metadata>Generated by IcoMoon</metadata>
<defs>
<font id="icomoon" horiz-adv-x="1024">
<font-face units-per-em="1024" ascent="960" descent="-64" />
<missing-glyph horiz-adv-x="1024" />
<glyph unicode="&#x20;" horiz-adv-x="512" d="" />
<glyph unicode="&#xe900;" glyph-name="p1" horiz-adv-x="1210" d="M833.776 378.258c159.533-88.163 271.359-251.64 287.138-442.258h-1117.091c15.78 190.618 127.605 354.095 287.138 442.258 68.105-71.707 164.514-116.44 271.407-116.44s203.302 44.733 271.407 116.44zM562.369 308.364c180.562 0 326.937 145.874 326.937 325.818s-146.375 325.818-326.937 325.818c-180.562 0-326.937-145.874-326.937-325.818s146.375-325.818 326.937-325.818z" />
<glyph unicode="&#xe901;" glyph-name="find" d="M1003.981-44.083c-11.469-11.52-27.341-18.586-44.851-18.586s-33.382 7.117-44.851 18.586l-89.651 89.702c-11.469 11.469-18.586 27.341-18.586 44.851 0 35.021 28.365 63.386 63.386 63.386 17.51 0 33.331-7.117 44.851-18.586l89.702-89.651c11.52-11.469 18.637-27.341 18.637-44.851s-7.117-33.382-18.637-44.851zM136.141 166.81c-84.122 84.122-136.141 200.243-136.141 328.602 0 256.563 208.026 464.589 464.589 464.589s464.589-208.026 464.589-464.589c0-128.307-52.019-244.48-136.141-328.55-84.070-84.070-200.192-136.038-328.499-136.038-128.205-0.051-244.326 51.968-328.397 135.987v0zM715.776 746.445c-138.701 138.752-363.571 138.752-502.323 0s-138.752-363.622 0-502.323c64.256-64.307 153.088-104.038 251.136-104.038 98.099 0 186.88 39.782 251.136 104.038 64.307 64.256 104.038 153.088 104.038 251.136 0.051 98.15-39.731 186.931-103.987 251.187z" />
<glyph unicode="&#xe902;" glyph-name="p2" horiz-adv-x="1117" d="M297.977 261.818h-204.656c-50.894 0-93.321-41.678-93.321-93.091v-93.091h1117.091v93.091c0 51.771-41.781 93.091-93.321 93.091h-205.652c-11.143 13.988-24.446 26.376-36.597 39.514-27.659 30.042-27.931 49.564-1.626 80.715 14.508 17.167 28.88 34.473 41.896 52.886 53.017 75.039 74.169 158.661 56.406 249.621-25.084 128.341-98.98 217.223-221.147 257.512-121.354 40.149-231.59 12.182-324.198-76.839-76.338-73.238-107.388-166.274-98.71-272.463 5.424-66.594 33.355-124.327 73.625-176.244 10.847-13.845 22.644-26.859 33.627-40.703 19.388-24.367 19.253-44.028-0.814-67.563-8.27-9.552-17.897-17.999-26.169-27.55-5.438-6.216-11.217-12.382-16.434-18.886zM0-17.455c0 25.706 21.318 46.545 46.578 46.545h1023.935c25.724 0 46.578-21.591 46.578-46.545 0-25.706-21.318-46.545-46.578-46.545h-1023.935c-25.724 0-46.578 21.591-46.578 46.545z" />
<glyph unicode="&#xe903;" glyph-name="aftersale" horiz-adv-x="1045" d="M520.459-3.557c-258.709 0-469.18 204.664-469.18 456.224 0 251.565 210.471 456.23 469.18 456.23s469.18-204.664 469.18-456.23c0-251.56-210.471-456.224-469.18-456.224zM1000.009 649.667c-26.217 60.268-63.739 114.389-111.531 160.862-47.787 46.467-103.445 82.953-165.425 108.446-64.18 26.397-132.345 39.784-202.595 39.784s-138.415-13.387-202.595-39.784c-61.98-25.493-117.638-61.979-165.425-108.451-47.792-46.467-85.314-100.588-111.526-160.857-27.146-62.408-40.914-128.69-40.914-197s13.767-134.593 40.914-197c26.212-60.268 63.739-114.389 111.526-160.857 47.792-46.473 103.45-82.958 165.425-108.451 64.18-26.392 132.345-39.779 202.595-39.779s138.415 13.387 202.595 39.784c61.98 25.488 117.638 61.974 165.425 108.446 47.792 46.473 85.314 100.588 111.531 160.857 27.146 62.413 40.914 128.69 40.914 197s-13.767 134.593-40.914 197zM755.464 313.75v-3.94c0-66.138-57.374-120.448-131.396-129.646v20.149c0 12.262-9.633 21.899-21.895 21.899h-87.598c-12.266 0-21.899-9.637-21.899-21.899v-43.797c0-12.266 9.633-21.899 21.899-21.899h87.598c109.056 0 197.092 78.397 197.092 175.193v3.94h-43.801zM799.263 375.505c0-12.262-9.637-21.899-21.899-21.899s-21.899 9.637-21.899 21.899v87.598c0 12.262 9.637 21.899 21.899 21.899s21.899-9.637 21.899-21.899v-87.598zM317.48 375.505c0-12.262-9.637-21.899-21.899-21.899-12.266 0-21.899 9.637-21.899 21.899v87.598c0 12.262 9.637 21.899 21.899 21.899s21.899-9.637 21.899-21.899v-87.598zM799.263 313.749c25.404 9.198 43.797 33.288 43.797 61.756v87.598c0 28.468-18.393 52.558-43.797 61.753v3.944c0 144.973-117.819 262.792-262.792 262.792s-262.788-117.819-262.788-262.792v-3.94c-25.404-9.198-43.797-33.288-43.797-61.756v-87.598c0-36.352 29.344-65.696 65.696-65.696s65.696 29.344 65.696 65.696v87.598c0 28.468-18.393 52.558-43.797 61.753v3.944c0 120.883 98.108 218.991 218.994 218.991 120.883 0 218.991-98.108 218.991-218.991v-3.94c-25.404-9.198-43.797-33.288-43.797-61.756v-87.598c0-28.468 18.393-52.558 43.794-61.756h43.801z" />
<glyph unicode="&#xe904;" glyph-name="down" d="M534.43 185.344l479.157 479.122c13.907 13.943 13.907 36.48 0 50.422-13.943 13.943-36.515 13.943-50.458 0l-455.765-455.73-448.241 448.205c-13.516 13.551-35.446 13.551-48.961 0-13.586-13.515-13.586-35.446 0-48.995l465.464-465.5c1.819-1.819 4.030-2.71 6.133-4.030 0.82-1.105 1.248-2.461 2.282-3.495 13.907-13.907 36.48-13.907 50.387 0z" />
<glyph unicode="&#xe905;" glyph-name="description" horiz-adv-x="1045" d="M520.459-3.557c-258.709 0-469.18 204.664-469.18 456.224 0 251.565 210.471 456.23 469.18 456.23s469.18-204.664 469.18-456.23c0-251.56-210.471-456.224-469.18-456.224zM1000.009 649.667c-26.217 60.268-63.739 114.389-111.531 160.862-47.787 46.467-103.445 82.953-165.425 108.446-64.18 26.397-132.345 39.784-202.595 39.784s-138.415-13.387-202.595-39.784c-61.98-25.493-117.638-61.979-165.425-108.451-47.792-46.467-85.314-100.588-111.526-160.857-27.146-62.408-40.914-128.69-40.914-197s13.767-134.593 40.914-197c26.212-60.268 63.739-114.389 111.526-160.857 47.792-46.473 103.45-82.958 165.425-108.451 64.18-26.392 132.345-39.779 202.595-39.779s138.415 13.387 202.595 39.784c61.98 25.488 117.638 61.974 165.425 108.446 47.792 46.473 85.314 100.588 111.531 160.857 27.146 62.413 40.914 128.69 40.914 197s-13.767 134.593-40.914 197zM768.074 489.329c-12.726 0-23.045-10.257-23.045-22.914v-211.428h-406.369v404.631h211.853c12.726 0 23.045 10.257 23.045 22.914 0 12.653-10.319 22.911-23.045 22.911h-227.845c-16.594 0-30.096-13.424-30.096-29.924v-436.435c0-16.5 13.502-29.924 30.096-29.924h438.356c16.594 0 30.096 13.424 30.096 29.924v227.332c0 12.656-10.319 22.914-23.045 22.914zM467.504 433.651l215.998 214.764c0.311 0.287 0.614 0.585 0.908 0.888 0.176 0.181 0.349 0.361 0.51 0.522 14.392 14.31 37.809 14.31 52.202 0s14.392-37.593 0-51.903c-0.173-0.172-0.349-0.341-0.522-0.507-0.308-0.292-0.605-0.593-0.894-0.903l-216.001-214.764c-10.192-0.802-31.828-1.602-54.375-2.164 0.562 22.418 1.369 43.93 2.173 54.067zM421.148 431.061c-0.473-7.672-0.922-18.084-1.335-30.947-0.698-21.696-1.061-43.34-1.064-43.555-0.104-6.208 2.332-12.189 6.745-16.58 4.327-4.302 10.187-6.712 16.295-6.712 0.127 0 0.254 0.003 0.38 0.006 0.219 0.003 21.985 0.364 43.805 1.055 12.939 0.413 23.411 0.857 31.128 1.33 14.234 0.866 22.826 1.39 29.94 8.463l221.838 220.571c0.11 0.109 0.216 0.215 0.32 0.324 0.173 0.166 0.343 0.335 0.513 0.502 32.362 32.18 32.362 84.536 0 116.712-32.364 32.177-85.022 32.177-117.398-0.017-0.164-0.16-0.326-0.324-0.487-0.487-0.11-0.106-0.222-0.215-0.329-0.321l-221.838-220.571c-7.117-7.073-7.641-15.617-8.515-29.772z" />
<glyph unicode="&#xe906;" glyph-name="deposit" horiz-adv-x="1045" d="M1000.009 649.667c-26.217 60.268-63.739 114.389-111.531 160.862-47.787 46.467-103.445 82.953-165.425 108.446-64.18 26.397-132.345 39.784-202.595 39.784s-138.415-13.387-202.595-39.784c-61.98-25.493-117.638-61.979-165.425-108.451-47.792-46.467-85.314-100.588-111.526-160.857-27.146-62.408-40.914-128.69-40.914-197s13.767-134.593 40.914-197c26.212-60.268 63.739-114.389 111.526-160.857 47.792-46.473 103.45-82.958 165.425-108.451 64.18-26.392 132.345-39.779 202.595-39.779s138.415 13.387 202.595 39.784c61.98 25.488 117.638 61.974 165.425 108.446 47.792 46.473 85.314 100.588 111.531 160.857 27.146 62.413 40.914 128.69 40.914 197s-13.767 134.593-40.914 197zM520.459-3.557c-258.709 0-469.18 204.664-469.18 456.224 0 251.565 210.471 456.23 469.18 456.23s469.18-204.664 469.18-456.23c0-251.56-210.471-456.224-469.18-456.224zM507.468 514.345h-167.561c-20.143 0-35.879 11.916-35.879 26.122s16.366 26.122 35.879 26.122h128.746l-83.246 106.55c-5.747 7.356-1.178 20.861 10.018 29.608s25.22 10.15 31.152 2.557l106.321-136.085 106.321 136.085c5.932 7.593 19.957 6.19 31.152-2.557s15.765-22.252 10.018-29.608l-83.246-106.55h107.848c20.143 0 35.879-11.916 35.879-26.122s-16.366-26.122-35.879-26.122h-145.279v-94.418h145.279c20.143 0 35.879-11.916 35.879-26.122s-16.366-26.122-35.879-26.122h-145.279v-147.293c0-20.143-11.457-36.508-26.122-36.508s-26.122 16.366-26.122 35.879v147.922h-167.561c-20.143 0-35.879 11.916-35.879 26.122s16.366 26.122 35.879 26.122h167.561v94.418z" />
<glyph unicode="&#xe907;" glyph-name="uniE907" d="M724.065 428.826c0.486 0.973 1.336 1.823 1.705 2.796 8.515 17.756 5.719 39.649-9.364 53.883l-343.726 325.115c-18.729 17.756-48.287 16.906-66.043-1.823s-16.906-48.287 1.823-66.043l308.454-291.789-307.236-296.049c-18.611-17.879-19.098-47.437-1.213-66.043 9.124-9.487 21.407-14.351 33.572-14.351 11.674 0 23.352 4.378 32.353 13.138l340.562 328.279c0.609 0.609 0.85 1.582 1.582 2.191 0.486 0.486 0.973 0.85 1.582 1.336 2.79 2.79 4.127 6.195 5.949 9.359v0 0z" />
<glyph unicode="&#xe908;" glyph-name="uniE908" d="M300.303 469.105c-0.486-0.973-1.336-1.823-1.705-2.796-8.515-17.756-5.719-39.649 9.364-53.883l343.726-325.115c18.729-17.756 48.287-16.906 66.043 1.823s16.906 48.287-1.823 66.043l-308.454 291.789 307.236 296.049c18.611 17.879 19.098 47.437 1.219 66.043-9.124 9.487-21.407 14.351-33.572 14.351-11.674 0-23.352-4.378-32.353-13.138l-340.557-328.274c-0.609-0.609-0.85-1.582-1.582-2.191-0.486-0.486-0.973-0.85-1.582-1.336-2.796-2.796-4.137-6.205-5.96-9.364v0 0z" />
<glyph unicode="&#xe909;" glyph-name="pr" horiz-adv-x="1117" d="M605.091 220.926v-191.835h187.019c25.244 0 45.708-21.591 45.708-46.545 0-25.706-21.214-46.545-45.708-46.545h-467.129c-25.244 0-45.708 21.591-45.708 46.545 0 25.706 21.214 46.545 45.708 46.545h187.019v191.919c-32.862 8.138-65.028 24.897-96.193 50.043-44.343 35.947-84.372 87.017-118.648 151.97-34.516 64.705-61.841 140.070-81.016 223.369-19.894 86.521-29.961 177.257-29.961 270.224 0 14.131 0.24 28.262 0.959 43.385h742.806c0.479-15.123 0.959-29.254 0.959-43.385 0.24-92.471-9.827-183.455-29.722-270.224-19.175-83.298-46.5-158.664-81.016-223.369s-74.305-115.775-118.648-151.97c-31.206-25.348-63.526-42.057-96.429-50.127zM0 771.825v1.993h129.652c14.725-134.654 49.203-259.63 103.075-372.364-118.878 50.958-228.418 177.072-232.727 370.371v0zM1117.091 771.825v1.993h-129.652c-14.725-134.654-49.203-259.63-103.075-372.364 118.878 50.958 228.418 177.072 232.727 370.371v0z" />
<glyph unicode="&#xe90a;" glyph-name="refresh" d="M983.503 274.817c-20.46 2.179-39.292-8.664-47.062-25.491l-0.032-0.012c-83.245-149.981-259.051-244.030-449.109-223.784-246.28 26.241-423.214 234.474-395.198 465.097 28.015 230.629 250.378 396.326 496.657 370.091 50.43-5.375 97.947-18.38 141.402-37.646l1.142 0.348-61.291-67.277c-7.095-7.79-6.112-19.49 2.208-26.129 3.052-2.439 6.666-3.851 10.375-4.288l274.042-47.355c6.515-0.892 13.358 1.258 17.943 6.29 4.68 5.144 5.821 11.984 3.677 17.949l0.026 0.035-93.33 246.41c-1.117 3.018-3.059 5.812-5.84 8.032-8.313 6.644-20.807 5.717-27.908-2.067l-60.957-66.911c-57.714 28.568-121.975 47.733-190.752 55.063-295.537 31.48-562.377-167.351-595.992-444.107-33.622-276.762 178.7-526.639 474.243-558.119 230.253-24.534 439.839 84.659 538.454 267.495 3.98 5.522 6.647 11.984 7.505 19.059 2.851 23.459-15.149 44.645-40.201 47.314z" />
<glyph unicode="&#xe90b;" glyph-name="uniE90B" horiz-adv-x="1117" d="M196.123 656.256c0 124.66 96.727 226.076 215.624 226.076 118.89 0 215.624-101.416 215.624-226.076s-96.734-226.076-215.624-226.076c-118.897 0-215.624 101.416-215.624 226.076v0zM547.177 387.814c91.678 51.053 154.273 152.221 154.273 268.442 0 167.488-129.966 303.747-289.703 303.747-159.744 0-289.703-136.259-289.703-303.747 0-116.221 62.589-217.389 154.273-268.442-160.708-58.857-276.317-219.37-276.317-407.686 0-21.45 16.584-38.832 37.036-38.832 20.459 0 37.043 17.381 37.043 38.832 0 195.216 151.478 354.036 337.668 354.036 186.184 0 337.661-158.82 337.661-354.036 0-21.45 16.584-38.832 37.036-38.832 20.459 0 37.043 17.381 37.043 38.832 0 188.316-115.609 348.829-276.311 407.686zM855.879 398.12c81.599 53.79 135.953 149.022 135.953 257.325 0 167.481-129.959 303.747-289.703 303.747-20.459 0-37.043-17.388-37.043-38.838s16.584-38.832 37.043-38.832c118.89 0 215.624-101.416 215.624-226.076s-96.734-226.076-215.624-226.076c-20.459 0-37.043-17.388-37.043-38.832 0-21.45 16.584-38.838 37.043-38.838 186.19 0 337.668-158.82 337.668-354.030 0-21.45 16.584-38.838 37.036-38.838 20.459 0 37.043 17.388 37.043 38.838 0 181.074-106.902 336.448-257.997 400.451z" />
<glyph unicode="&#xe90c;" glyph-name="house" horiz-adv-x="1041" d="M624.814-59.886h-419.48c-19.171 0-34.712 15.541-34.712 34.712v434.21h-135.91c-19.171 0-34.712 15.541-34.712 34.712 0 9.206 3.657 18.035 10.167 24.545l481.54 481.54c13.556 13.556 35.534 13.556 49.090 0l481.54-481.54c1.975-1.975 3.662-4.128 5.061-6.409h-72.288l-438.858 438.858-439.639-439.639h146.077v-468.922h402.124v-52.068zM564.068 283.119h312.407c14.378 0 26.034-11.656 26.034-26.034s-11.656-26.034-26.034-26.034h-312.407c-14.378 0-26.034 11.656-26.034 26.034s11.656 26.034 26.034 26.034zM564.068 178.983h312.407c14.378 0 26.034-11.656 26.034-26.034s-11.656-26.034-26.034-26.034h-312.407c-14.378 0-26.034 11.656-26.034 26.034s11.656 26.034 26.034 26.034zM746.305 239.729v-260.339c0-14.378-11.656-26.034-26.034-26.034s-26.034 11.656-26.034 26.034v260.339c0 14.378 11.656 26.034 26.034 26.034s26.034-11.656 26.034-26.034zM602.752 446.904l134.392-168.952c8.247-10.368 5.385-24.658-6.393-31.917s-28.011-4.74-36.258 5.628l-134.392 168.952c-8.247 10.368-5.385 24.658 6.393 31.917s28.011 4.74 36.258-5.628zM833.34 446.904l-134.392-168.952c-8.247-10.368-5.385-24.658 6.393-31.917s28.011-4.74 36.258 5.628l134.392 168.952c8.247 10.368 5.385 24.658-6.393 31.917s-28.011 4.74-36.258-5.628z" />
<glyph unicode="&#xe90d;" glyph-name="doc" horiz-adv-x="841" d="M841.143 146.286v722.286c0 50.495-33.624 91.429-75.102 91.429h-90.122v-54.857h90.122c16.591 0 30.041-16.374 30.041-36.571v-603.429h45.061v-118.857zM600.816-64h-525.714c-41.478 0-75.102 40.934-75.102 91.429v841.143c0 50.495 33.624 91.429 75.102 91.429h90.122v-54.857h-90.122c-16.591 0-30.041-16.374-30.041-36.571v-841.143c0-20.198 13.45-36.571 30.041-36.571h360.49v-54.857h165.224zM495.673 960h75.102v-54.857h-75.102v54.857zM345.469 960v-54.857h-75.102v54.857h75.102zM137.143 594.286h566.857c15.148 0 27.429-12.28 27.429-27.429s-12.28-27.429-27.429-27.429h-566.857c-15.148 0-27.429 12.28-27.429 27.429s12.28 27.429 27.429 27.429zM137.143 429.714h566.857c15.148 0 27.429-12.28 27.429-27.429s-12.28-27.429-27.429-27.429h-566.857c-15.148 0-27.429 12.28-27.429 27.429s12.28 27.429 27.429 27.429zM566.857 265.143h274.286l-156.002-173.714-141.904-142.374c-7.129-7.153-18.707-7.172-25.86-0.043-3.442 3.431-5.377 8.091-5.377 12.951v248.322c0 30.297 24.56 54.857 54.857 54.857z" />
<glyph unicode="&#xe90e;" glyph-name="convert" d="M820.176 39.097c-85.738-64.72-192.475-103.097-308.176-103.097-282.77 0-512 229.23-512 512 0 128.442 47.296 245.838 125.422 335.722l35.756-42.612c-66.371-79.354-106.32-181.567-106.32-293.11 0-252.473 204.67-457.143 457.143-457.143 102.273 0 196.702 33.585 272.86 90.328l35.316-42.088zM920.427 139.195l-36.286 43.244c53.512 74.855 85.002 166.531 85.002 265.562 0 252.473-204.67 457.143-457.143 457.143-90.011 0-173.947-26.015-244.698-70.936l-35.543 42.359c80.514 52.755 176.795 83.434 280.241 83.434 282.77 0 512-229.23 512-512 0-115.984-38.566-222.96-103.573-308.805zM320 484.571h384c15.148 0 27.429-12.28 27.429-27.429s-12.28-27.429-27.429-27.429h-384c-15.148 0-27.429 12.28-27.429 27.429s12.28 27.429 27.429 27.429zM320 393.143h384c15.148 0 27.429-12.28 27.429-27.429s-12.28-27.429-27.429-27.429h-384c-15.148 0-27.429 12.28-27.429 27.429s12.28 27.429 27.429 27.429zM539.429 457.355v-243.81c0-13.465-12.28-24.381-27.429-24.381s-27.429 10.916-27.429 24.381v243.81c0 13.465 12.28 24.381 27.429 24.381s27.429-10.916 27.429-24.381zM377.712 661.122l141.591-178.003c8.689-10.923 5.673-25.978-6.736-33.627s-29.512-4.994-38.201 5.929l-141.591 178.003c-8.689 10.923-5.673 25.978 6.736 33.627s29.512 4.994 38.201-5.929zM638.939 661.122l-141.591-178.003c-8.689-10.923-5.673-25.978 6.736-33.627s29.512-4.994 38.201 5.929l141.591 178.003c8.689 10.923 5.673 25.978-6.736 33.627s-29.512 4.994-38.201-5.929zM174.183 806.681l-13.971-141.801-123.641 76.856zM846.111 104.794l32.085 148.718 120.215-90.026z" />
<glyph unicode="&#xe90f;" glyph-name="arrows" d="M736 512c-8.896 0-17.76 3.712-24.096 10.912l-199.904 228.48-199.904-228.48c-11.648-13.312-31.84-14.656-45.152-3.008s-14.656 31.84-3.008 45.152l224 256c6.080 6.944 14.848 10.912 24.096 10.912s18.016-4 24.096-10.912l224-256c11.648-13.312 10.304-33.504-3.008-45.152-6.080-5.312-13.568-7.904-21.056-7.904z" />
<glyph unicode="&#xe910;" glyph-name="-5" d="M510.716 704.29c-14.129 0-25.583 11.454-25.583 25.583v155.966c0 14.129 11.454 25.583 25.583 25.583s25.583-11.454 25.583-25.583v-155.967c-0.001-14.128-11.454-25.582-25.583-25.582zM510.716 16.801c-14.129 0-25.583 11.453-25.583 25.583v155.966c0 14.13 11.454 25.583 25.583 25.583s25.583-11.453 25.583-25.583v-155.966c-0.001-14.13-11.454-25.583-25.583-25.583zM932.443 438.528h-155.967c-14.13 0-25.583 11.454-25.583 25.583s11.453 25.583 25.583 25.583h155.967c14.13 0 25.583-11.454 25.583-25.583s-11.453-25.583-25.583-25.583zM244.955 438.528h-155.967c-14.129 0-25.583 11.454-25.583 25.583s11.454 25.583 25.583 25.583h155.967c14.129 0 25.583-11.454 25.583-25.583s-11.454-25.583-25.583-25.583zM698.637 626.45c-6.547 0-13.094 2.498-18.090 7.493-9.991 9.991-9.991 26.188 0 36.179l110.285 110.285c9.992 9.991 26.188 9.991 36.179 0s9.991-26.188 0-36.179l-110.285-110.285c-4.995-4.995-11.542-7.493-18.089-7.493zM212.509 140.323c-6.547 0-13.094 2.497-18.090 7.493-9.991 9.991-9.991 26.188 0 36.179l110.285 110.285c9.991 9.992 26.188 9.992 36.179 0s9.991-26.188 0-36.179l-110.284-110.285c-4.996-4.995-11.543-7.493-18.090-7.493zM808.922 140.323c-6.547 0-13.094 2.497-18.090 7.493l-110.285 110.286c-9.991 9.991-9.991 26.189 0 36.179 9.992 9.992 26.188 9.992 36.179 0l110.285-110.285c9.991-9.991 9.991-26.189 0-36.179-4.995-4.996-11.541-7.494-18.089-7.494zM322.794 626.45c-6.548 0-13.093 2.497-18.090 7.493l-110.285 110.285c-9.991 9.991-9.991 26.188 0 36.179s26.188 9.99 36.179 0l110.285-110.285c9.991-9.991 9.991-26.188 0-36.179-4.994-4.995-11.543-7.493-18.089-7.493z" />
<glyph unicode="&#xe911;" glyph-name="fontAwesome_angle_down" d="M790.272 539.424q0-7.424-5.728-13.152l-266.272-266.272q-5.728-5.728-13.152-5.728t-13.152 5.728l-266.272 266.272q-5.728 5.728-5.728 13.152t5.728 13.152l28.576 28.576q5.728 5.728 13.152 5.728t13.152-5.728l224.576-224.576 224.576 224.576q5.728 5.728 13.152 5.728t13.152-5.728l28.576-28.576q5.728-5.728 5.728-13.152z" />
<glyph unicode="&#xe912;" glyph-name="uniE912" d="M13.998 925.557c11.778 11.772 30.613 12.033 42.688-0.036l895.621-895.185c11.798-11.792 11.469-31.239 0.036-42.667v0c-11.778-11.772-30.613-12.033-42.688 0.036l-895.621 895.185c-11.798 11.792-11.469 31.239-0.036 42.667zM952.343 925.557c-11.778 11.772-30.613 12.033-42.688-0.036l-895.621-895.185c-11.798-11.792-11.469-31.239-0.036-42.667v0c11.778-11.772 30.613-12.033 42.688 0.036l895.621 895.185c11.798 11.792 11.469 31.239 0.036 42.667z" />
<glyph unicode="&#xe913;" glyph-name="uniE913" horiz-adv-x="878" d="M415.744 372.955c-88.283 0-159.89 72.997-159.89 163.109 0 90.039 71.607 163.035 159.89 163.035s159.89-72.997 159.89-163.035c0-90.112-71.607-163.109-159.89-163.109zM831.488 536.064c0 234.13-186.149 423.936-415.744 423.936s-415.744-189.806-415.744-423.936c0-7.461 0.731-14.629 1.097-21.87-0.293-3.584-1.097-7.095-1.097-10.752 0-260.974 383.781-556.544 383.781-556.544s31.963-24.43 63.927 0c31.963 24.503 383.781 295.57 383.781 556.544 0 3.657-0.731 7.168-1.097 10.752 0.366 7.241 1.097 14.409 1.097 21.87z" />
<glyph unicode="&#xe915;" glyph-name="a2" horiz-adv-x="768" d="M594.479 408.948v551.052h-409.6v-551.052h-184.879l384-472.948 384 472.948h-173.521z" />
<glyph unicode="&#xe916;" glyph-name="a1" horiz-adv-x="768" d="M594.479 487.052v-551.052h-409.6v551.052h-184.879l384 472.948 384-472.948h-173.521z" />
<glyph unicode="" glyph-name="a1" horiz-adv-x="768" d="M594.479 487.052v-551.052h-409.6v551.052h-184.879l384 472.948 384-472.948h-173.521z" />
<glyph unicode="e910" glyph-name="-5" d="M510.716 704.29c-14.129 0-25.583 11.454-25.583 25.583v155.966c0 14.129 11.454 25.583 25.583 25.583s25.583-11.454 25.583-25.583v-155.967c-0.001-14.128-11.454-25.582-25.583-25.582zM510.716 16.801c-14.129 0-25.583 11.453-25.583 25.583v155.966c0 14.13 11.454 25.583 25.583 25.583s25.583-11.453 25.583-25.583v-155.966c-0.001-14.13-11.454-25.583-25.583-25.583zM932.443 438.528h-155.967c-14.13 0-25.583 11.454-25.583 25.583s11.453 25.583 25.583 25.583h155.967c14.13 0 25.583-11.454 25.583-25.583s-11.453-25.583-25.583-25.583zM244.955 438.528h-155.967c-14.129 0-25.583 11.454-25.583 25.583s11.454 25.583 25.583 25.583h155.967c14.129 0 25.583-11.454 25.583-25.583s-11.454-25.583-25.583-25.583zM698.637 626.45c-6.547 0-13.094 2.498-18.090 7.493-9.991 9.991-9.991 26.188 0 36.179l110.285 110.285c9.992 9.991 26.188 9.991 36.179 0s9.991-26.188 0-36.179l-110.285-110.285c-4.995-4.995-11.542-7.493-18.089-7.493zM212.509 140.323c-6.547 0-13.094 2.497-18.090 7.493-9.991 9.991-9.991 26.188 0 36.179l110.285 110.285c9.991 9.992 26.188 9.992 36.179 0s9.991-26.188 0-36.179l-110.284-110.285c-4.996-4.995-11.543-7.493-18.090-7.493zM808.922 140.323c-6.547 0-13.094 2.497-18.090 7.493l-110.285 110.286c-9.991 9.991-9.991 26.189 0 36.179 9.992 9.992 26.188 9.992 36.179 0l110.285-110.285c9.991-9.991 9.991-26.189 0-36.179-4.995-4.996-11.541-7.494-18.089-7.494zM322.794 626.45c-6.548 0-13.093 2.497-18.090 7.493l-110.285 110.285c-9.991 9.991-9.991 26.188 0 36.179s26.188 9.99 36.179 0l110.285-110.285c9.991-9.991 9.991-26.188 0-36.179-4.994-4.995-11.543-7.493-18.089-7.493z" />
</font>
</defs>
</svg>
