<?xml version="1.0" standalone="no"?>
<!DOCTYPE svg PUBLIC "-//W3C//DTD SVG 1.1//EN" "http://www.w3.org/Graphics/SVG/1.1/DTD/svg11.dtd" >
<!--
2013-9-30: Created.
-->
<svg>
<metadata>
Created by iconfont
</metadata>
<defs>

<font id="iconfont" horiz-adv-x="1024" >
  <font-face
    font-family="iconfont"
    font-weight="500"
    font-stretch="normal"
    units-per-em="1024"
    ascent="896"
    descent="-128"
  />
    <missing-glyph />
    
    <glyph glyph-name="x" unicode="x" horiz-adv-x="1001"
d="M281 543q-27 -1 -53 -1h-83q-18 0 -36.5 -6t-32.5 -18.5t-23 -32t-9 -45.5v-76h912v41q0 16 -0.5 30t-0.5 18q0 13 -5 29t-17 29.5t-31.5 22.5t-49.5 9h-133v-97h-438v97zM955 310v-52q0 -23 0.5 -52t0.5 -58t-10.5 -47.5t-26 -30t-33 -16t-31.5 -4.5q-14 -1 -29.5 -0.5
t-29.5 0.5h-32l-45 128h-439l-44 -128h-29h-34q-20 0 -45 1q-25 0 -41 9.5t-25.5 23t-13.5 29.5t-4 30v167h911zM163 247q-12 0 -21 -8.5t-9 -21.5t9 -21.5t21 -8.5q13 0 22 8.5t9 21.5t-9 21.5t-22 8.5zM316 123q-8 -26 -14 -48q-5 -19 -10.5 -37t-7.5 -25t-3 -15t1 -14.5
t9.5 -10.5t21.5 -4h37h67h81h80h64h36q23 0 34 12t2 38q-5 13 -9.5 30.5t-9.5 34.5q-5 19 -11 39h-368zM336 498v228q0 11 2.5 23t10 21.5t20.5 15.5t34 6h188q31 0 51.5 -14.5t20.5 -52.5v-227h-327z" />
    

    
    <glyph glyph-name="add" unicode="&#58880;" d="M992 428 640 428 640 780c0 17.672-14.328 32-32 32l-192 0c-17.672 0-32-14.328-32-32l0-352L32 428c-17.672 0-32-14.328-32-32l0-192c0-17.672 14.328-32 32-32l352 0 0-352c0-17.672 14.328-32 32-32l192 0c17.672 0 32 14.328 32 32L640 172l352 0c17.672 0 32 14.328 32 32l0 192C1024 413.672 1009.672 428 992 428z"  horiz-adv-x="1024" />

    
    <glyph glyph-name="appendix" unicode="&#58881;" d="M697.832 484.952l-64.952 64.922L308.07 225.132c-53.814-53.792-53.814-141.048 0-194.844 53.804-53.792 141.06-53.792 194.874 0l389.772 389.708c89.714 89.662 89.714 235.062 0 324.726-89.666 89.704-235.112 89.704-324.782 0L158.67 335.576l0.034-0.032c-0.29-0.304-0.612-0.576-0.876-0.846-125.102-125.096-125.102-327.856 0-452.906 125.054-125.056 327.868-125.056 452.988 0 0.274 0.274 0.516 0.568 0.82 0.876l0.032-0.034 279.332 279.292-64.986 64.92L546.7-52.416l-0.016 0c-0.296-0.268-0.564-0.57-0.846-0.844-89.074-89.058-233.98-89.058-323.076 0-89.062 89.042-89.062 233.922 0 322.978 0.304 0.304 0.604 0.582 0.888 0.846l-0.046 0.06 409.28 409.166c53.712 53.738 141.144 53.738 194.886 0 53.712-53.734 53.712-141.148 0-194.84L437.998 95.25c-17.936-17.922-47.054-17.922-64.972 0-17.894 17.886-17.894 47.032 0 64.92L697.832 484.952z"  horiz-adv-x="1024" />

    
    <glyph glyph-name="calendar" unicode="&#58882;" d="M320 428 448 428 448 300 320 300zM512 428 640 428 640 300 512 300zM704 428 832 428 832 300 704 300zM128 44 256 44 256-84 128-84zM320 44 448 44 448-84 320-84zM512 44 640 44 640-84 512-84zM320 236 448 236 448 108 320 108zM512 236 640 236 640 108 512 108zM704 236 832 236 832 108 704 108zM128 236 256 236 256 108 128 108zM832 812l0-64-128 0L704 812 256 812l0-64L128 748 128 812 0 812l0-1024 960 0L960 812 832 812zM896-148 64-148 64 556l832 0L896-148z"  horiz-adv-x="1024" />

    
    <glyph glyph-name="card" unicode="&#58883;" d="M928 684 96 684C43.2 684 0 640.8 0 588l0-576c0-52.8 43.2-96 96-96l832 0c52.8 0 96 43.2 96 96L1024 588C1024 640.8 980.8 684 928 684zM96 620l832 0c17.346 0 32-14.654 32-32l0-96L64 492l0 96C64 605.346 78.654 620 96 620zM928-20 96-20c-17.346 0-32 14.654-32 32L64 300l896 0 0-288C960-5.346 945.346-20 928-20zM128 172 192 172 192 44 128 44zM256 172 320 172 320 44 256 44zM384 172 448 172 448 44 384 44z"  horiz-adv-x="1024" />

    
    <glyph glyph-name="clock" unicode="&#58884;" d="M512 684C264.576 684 64 483.424 64 236s200.576-448 448-448 448 200.576 448 448S759.424 684 512 684zM512-124c-198.824 0-360 161.178-360 360 0 198.824 161.176 360 360 360 198.822 0 360-161.176 360-360C872 37.178 710.822-124 512-124zM934.784 524.826C950.826 552.878 960 585.368 960 620c0 106.04-85.96 192-192 192-61.818 0-116.802-29.222-151.92-74.596C747.964 710.168 861.286 632.206 934.784 524.826zM407.92 737.404C372.804 782.778 317.818 812 256 812 149.96 812 64 726.04 64 620c0-34.632 9.174-67.122 25.216-95.174C162.716 632.206 276.038 710.168 407.92 737.404zM448 492l64 0 0-320-64 0L448 492zM512 236l192 0 0-64-192 0L512 236z"  horiz-adv-x="1024" />

    
    <glyph glyph-name="customer" unicode="&#58885;" d="M622.826 109.264c-22.11 3.518-22.614 64.314-22.614 64.314s64.968 64.316 79.128 150.802c38.09 0 61.618 91.946 23.522 124.296C704.452 482.73 751.822 716 512 716c-239.822 0-192.45-233.27-190.864-267.324-38.094-32.35-14.57-124.296 23.522-124.296 14.158-86.486 79.128-150.802 79.128-150.802s-0.504-60.796-22.614-64.314C329.952 97.932 64-19.37 64-148l448 0 448 0C960-19.37 694.048 97.932 622.826 109.264z"  horiz-adv-x="1024" />

    
    <glyph glyph-name="customers" unicode="&#58886;" d="M734.994 6.626c-18.952 2.988-19.384 54.654-19.384 54.654s55.688 54.656 67.824 128.152c32.652 0 52.814 78.138 20.164 105.628 1.362 28.94 41.968 227.176-163.598 227.176-205.564 0-164.958-198.236-163.598-227.176-32.654-27.49-12.488-105.628 20.162-105.628 12.134-73.496 67.826-128.152 67.826-128.152s-0.432-51.666-19.384-54.654C483.958-3.006 256-102.69 256-212l384 0 384 0C1024-102.69 796.042-3.006 734.994 6.626zM344.054-10.81c44.094 27.15 97.626 52.308 141.538 67.424-15.752 22.432-33.294 52.936-44.33 89.062-15.406 12.566-27.944 30.532-35.998 52.602-8.066 22.104-11.122 46.852-8.608 69.684 1.804 16.392 6.478 31.666 13.65 45.088-4.35 46.586-7.414 138.034 52.448 204.732 23.214 25.866 52.556 44.46 87.7 55.686C544.18 638.228 511.294 714.238 384 714.238c-205.564 0-164.958-198.236-163.598-227.176-32.654-27.49-12.488-105.628 20.162-105.628 12.134-73.496 67.826-128.152 67.826-128.152s-0.432-51.666-19.384-54.654C227.958 188.994 0 89.31 0-20l329.596 0C334.306-16.926 339.102-13.86 344.054-10.81z"  horiz-adv-x="1024" />

    
    <glyph glyph-name="dialog2" unicode="&#58887;" d="M512 748c282.77 0 512-186.25 512-416 0-229.752-229.23-416-512-416-27.156 0-53.81 1.734-79.824 5.044C322.198-188.934 190.926-208.656 64-211.552l0 26.916c68.536 33.578 128 94.74 128 164.636 0 9.754-0.758 19.33-2.164 28.696C74.04 84.96 0 201.45 0 332 0 561.75 229.23 748 512 748zM194.886 421c-45.288 0-82-36.712-82-82s36.712-82 82-82 82 36.712 82 82S240.172 421 194.886 421zM512 421c-45.288 0-82-36.712-82-82s36.712-82 82-82 82 36.712 82 82S557.288 421 512 421zM849.482 421c-45.288 0-82-36.712-82-82s36.712-82 82-82 82 36.712 82 82S894.77 421 849.482 421z"  horiz-adv-x="1024" />

    
    <glyph glyph-name="down2" unicode="&#58888;" d="M146.746 190.746l320-320c24.992-24.994 65.516-24.994 90.51 0l320 320c24.992 24.994 24.992 65.516 0 90.51-24.994 24.994-65.516 24.994-90.51 0L576 70.51 576 684c0 35.346-28.654 64-64 64s-64-28.654-64-64l0-613.49L237.254 281.256C224.758 293.752 208.378 300 192 300s-32.758-6.248-45.254-18.744C121.752 256.262 121.752 215.74 146.746 190.746z"  horiz-adv-x="1024" />

    
    <glyph glyph-name="earth" unicode="&#58889;" d="M480 748C214.904 748 0 533.096 0 268c0-265.098 214.904-480 480-480 265.098 0 480 214.902 480 480C960 533.096 745.098 748 480 748zM751.59 108c8.58 40.454 13.996 83.392 15.758 128l127.446 0c-3.336-44.196-13.624-87.114-30.68-128L751.59 108zM208.41 428c-8.58-40.454-13.996-83.392-15.758-128L65.208 300c3.336 44.194 13.622 87.114 30.678 128L208.41 428zM686.036 428c9.614-40.962 15.398-83.854 17.28-128L512 300l0 128L686.036 428zM512 492 512 679.338c14.59-4.246 29.044-11.37 43.228-21.37 26.582-18.74 52.012-47.608 73.54-83.486 14.882-24.802 27.752-52.416 38.496-82.484L512 491.998zM331.232 574.484c21.528 35.878 46.956 64.748 73.54 83.486 14.182 10 28.638 17.124 43.228 21.37L448 492l-155.264 0C303.482 522.066 316.352 549.68 331.232 574.484zM448 428l0-128-191.314 0c1.88 44.146 7.666 87.038 17.278 128L448 428zM95.888 108c-17.056 40.886-27.342 83.804-30.678 128l127.444 0c1.762-44.608 7.178-87.546 15.758-128L95.888 108zM256.686 236 448 236l0-128-174.036 0C264.352 148.96 258.566 191.854 256.686 236zM448 44l0-187.34c-14.588 4.246-29.044 11.372-43.228 21.37-26.584 18.74-52.014 47.61-73.54 83.486-14.882 24.804-27.75 52.418-38.498 82.484L448 44zM628.768-38.484c-21.528-35.876-46.958-64.746-73.54-83.486-14.184-9.998-28.638-17.124-43.228-21.37L512 44l155.266 0C656.52 13.934 643.65-13.68 628.768-38.484zM512 108l0 128 191.314 0c-1.88-44.146-7.666-87.04-17.28-128L512 108zM767.348 300c-1.762 44.608-7.178 87.546-15.758 128l112.524 0c17.056-40.886 27.344-83.806 30.68-128L767.348 300zM830.658 492l-95.9 0c-18.638 58.762-44.376 110.294-75.316 151.428 42.536-20.34 81.058-47.616 114.714-81.272C795.636 540.678 814.518 517.218 830.658 492zM185.844 562.156c33.658 33.658 72.18 60.932 114.714 81.272-30.942-41.134-56.676-92.666-75.316-151.428L129.344 492C145.482 517.218 164.366 540.678 185.844 562.156zM129.344 44l95.898 0c18.64-58.762 44.376-110.294 75.318-151.43-42.536 20.34-81.058 47.616-114.714 81.274C164.366-4.678 145.482 18.782 129.344 44zM774.156-26.156c-33.656-33.658-72.18-60.934-114.714-81.274 30.942 41.134 56.678 92.668 75.316 151.43l95.9 0C814.518 18.782 795.636-4.678 774.156-26.156z"  horiz-adv-x="1024" />

    
    <glyph glyph-name="file" unicode="&#58890;" d="M903.432 612.57l-142.864 142.862C729.456 786.544 668 812 624 812L144 812C100 812 64 776 64 732l0-864c0-44 36-80 80-80l736 0c44 0 80 36 80 80L960 476C960 520 934.544 581.458 903.432 612.57zM858.178 567.314c3.13-3.13 6.25-6.974 9.28-11.314L704 556 704 719.456c4.34-3.03 8.184-6.15 11.314-9.28L858.178 567.314zM896-132c0-8.672-7.328-16-16-16L144-148c-8.672 0-16 7.328-16 16L128 732c0 8.672 7.328 16 16 16l480 0c4.832 0 10.254-0.61 16-1.704L640 492l254.296 0c1.094-5.746 1.704-11.166 1.704-16L896-132z"  horiz-adv-x="1024" />

    
    <glyph glyph-name="giving" unicode="&#58891;" d="M771.515493 492.000625c18.125965 12.879975 35.511931 27.215947 51.4439 43.147916 33.401935 33.401935 55.745891 74.499854 62.911877 115.721774 7.857985 45.185912-3.671993 87.13983-31.629938 115.099775-22.299956 22.297956-52.509897 34.085933-87.363829 34.085933-49.631903 0-101.921801-23.823953-143.45972-65.361872-66.47587-66.47587-105.225794-158.237691-126.075754-223.721563-15.43997 65.801871-46.20591 154.643698-106.017793 214.457581C359.230298 757.522106 318.210378 774.000074 279.478454 774.000074c-31.653938 0-61.779879-11.003979-84.259835-33.485935-49.985902-49.987902-43.231916-137.785731 15.085971-196.103617 20.791959-20.791959 45.097912-38.061926 70.719862-52.411898L64.000875 491.998625l0-255.9995 63.999875 0 0-447.999125 767.9985 0L895.99925 236.001125l63.999875 0L959.999125 492.000625 771.515493 492.000625zM674.325683 683.78225c27.723946 27.723946 62.321878 44.273914 92.549819 44.273914 10.699979 0 25.70795-2.253996 36.449929-12.997975 26.029949-26.027949 11.411978-86.307831-31.279939-128.997748-43.945914-43.945914-103.059799-74.167855-154.431698-94.059816l-50.671901 0C585.509856 549.548513 618.999791 628.456358 674.325683 683.78225zM233.934543 651.110314c-0.701999 9.119982-0.05 26.247949 12.195976 38.493925C256.374499 699.848219 269.918473 702.000215 279.478454 702.000215l0 0c21.257958 0 43.467915-10.01598 60.931881-27.479946 33.871934-33.871934 61.765879-87.771829 80.667842-155.875696 0.509999-1.839996 1.007998-3.669993 1.495997-5.485989-1.815996 0.485999-3.645993 0.983998-5.485989 1.495997-68.103867 18.903963-122.001762 46.797909-155.873696 80.669842C245.386521 611.150392 235.44454 631.484353 233.934543 651.110314zM448.000125-147.998125 192.000625-147.998125 192.000625 268.001062l255.9995 0L448.000125-147.998125zM448.000125 300.001 128.00075 300.001l0 127.99975 319.999375 0L448.000125 300.001zM831.999375-147.998125 575.999875-147.998125 575.999875 268.001062l255.9995 0L831.999375-147.998125zM895.99925 300.001 575.999875 300.001l0 127.99975 319.999375 0L895.99925 300.001z"  horiz-adv-x="1024" />

    
    <glyph glyph-name="good" unicode="&#58892;" d="M530.562 586.478c-50.992 62.488-74.67 128.688-61.796 172.766l9.524 32.61-33.538 5.418c-11.302 1.826-22.386 2.75-32.944 2.75-49.412 0-89.318-20.412-112.368-57.476-37.542-60.368-27.956-158.396 27.468-285.146L137.758 457.4c-29.022 0-53.48-13.194-68.87-37.152-11.724-18.252-17.922-42.376-17.922-69.758 0-38.376 11.938-78.584 33.056-104.62-0.08-0.138-0.158-0.276-0.236-0.414-8.246-14.554-12.426-33.208-12.426-55.442 0-30.916 8.336-66.19 22.3-94.354 9.26-18.68 20.426-33.18 32.908-43.038-0.388-3.656-0.582-7.548-0.582-11.698 0-27.39 8.814-63.128 22.456-91.042 13.734-28.104 31.614-47.388 51.872-56.464 6.06-27.562 22.682-51.316 48.284-68.384 26.634-17.754 61.838-27.534 99.126-27.534 141.044 0 183.952 20.096 229.376 41.372 38.64 18.1 78.598 36.814 193.656 48.774l26.898 2.796L797.654 419.728l-21.38 6.414C678.188 455.564 590.926 512.506 530.562 586.478zM887.632 457.402l-31.98 0 0-89.996 1.99 0 0-419.92-1.99 0 0-89.994 31.98 0c50.46 0 89.99 52.704 89.99 119.984l0 359.94C977.624 404.698 938.094 457.402 887.632 457.402z"  horiz-adv-x="1024" />

    
    <glyph glyph-name="good2" unicode="&#58893;" d="M887.632 457.4l-1.98 0c-16.568 0-30-13.432-30-30l0-29.994c0-3.794 0.706-7.426 1.99-10.768l0-458.384c-1.286-3.342-1.99-6.972-1.99-10.768l0-29.994c0-16.568 13.432-30 30-30l1.98 0c50.46 0 89.988 52.704 89.988 119.984l0 359.94C977.622 404.698 938.094 457.4 887.632 457.4zM776.272 426.144c-98.084 29.422-185.346 86.364-245.708 160.336-50.992 62.488-74.672 128.688-61.798 172.766 2.412 8.258 1.164 17.154-3.43 24.428s-12.088 12.226-20.582 13.598c-11.3 1.826-22.384 2.75-32.942 2.75-49.412 0-89.318-20.412-112.368-57.476-37.542-60.368-27.956-158.396 27.466-285.146L137.758 457.4c-29.022 0-53.48-13.194-68.87-37.152-11.724-18.252-17.922-42.376-17.922-69.758 0-38.378 11.938-78.584 33.056-104.62-0.08-0.138-0.158-0.276-0.236-0.414-8.246-14.554-12.428-33.208-12.428-55.442 0-30.916 8.336-66.188 22.3-94.354 9.26-18.678 20.426-33.178 32.908-43.036-0.388-3.656-0.582-7.548-0.582-11.698 0-27.39 8.814-63.126 22.456-91.042 13.734-28.104 31.614-47.388 51.872-56.464 6.06-27.562 22.68-51.316 48.282-68.384 26.634-17.754 61.838-27.534 99.126-27.534 141.046 0 183.95 20.096 229.374 41.372 38.642 18.1 78.6 36.814 193.658 48.774 15.286 1.59 26.898 14.472 26.898 29.84l0 479.92C797.652 410.658 788.96 422.336 776.272 426.144zM737.652-55.748c-105.202-13.198-147.956-33.22-186.006-51.042-42.592-19.95-76.234-35.708-203.924-35.708-31.122 0-89.98 12.538-89.98 59.984 0 16.568-13.432 30-30 30-4.022 0-10.144 4.93-15.976 12.866-18.55 25.242-26.602 66.35-25.842 83.238 7.19 5.48 11.828 14.132 11.828 23.872 0 2.946-0.424 5.792-1.214 8.478-3.66 12.44-15.162 21.522-28.786 21.522-2.762 0.066-16.626 10.682-27.358 41.776-14.174 41.072-8.882 72.95-3.4 78.152 0.16 0.02 0.41 0.042 0.764 0.042 16.568 0 30.006 13.432 30.006 30 0 15.988-12.5 29.054-28.262 29.95-0.574 0.034-1.154 0.05-1.736 0.05-7.612 0.996-29.434 35.716-26.572 80.334 0.866 13.49 4.15 24.718 9.25 31.618 4.156 5.622 9.334 8.02 17.312 8.02l236.21 0c10.368 0 20 5.352 25.476 14.158 5.476 8.804 6.016 19.81 1.432 29.11-29.054 58.928-92.134 203.218-50.484 270.194 11.14 17.912 29.67 27.65 55.14 29-1.998-57.838 25.814-126.698 78.544-191.316 63.41-77.706 152.83-138.58 253.576-173.014L737.65-55.748z"  horiz-adv-x="1024" />

    
    <glyph glyph-name="heart" unicode="&#58894;" d="M1024 453.844C1024 616.302 892.3 748 729.844 748 643.482 748 565.814 710.782 512 651.51 458.186 710.782 380.518 748 294.156 748 131.698 748 0 616.302 0 453.844 0 367.482 37.218 289.814 96.49 236L96 236l320-320c32-32 64-64 96-64s64 32 96 64l320 320-0.49 0C986.782 289.814 1024 367.482 1024 453.844zM841.468 330.768 517.49 6.51c-1.678-1.678-3.532-3.532-5.49-5.48-1.96 1.95-3.814 3.802-5.49 5.48L182.532 330.766C147.366 362.694 128 406.404 128 453.844 128 545.462 202.538 620 294.156 620c47.44 0 91.15-19.366 123.076-54.532L512 461.088l94.768 104.378C638.696 600.634 682.404 620 729.844 620 821.462 620 896 545.462 896 453.844 896 406.404 876.632 362.694 841.468 330.768z"  horiz-adv-x="1024" />

    
    <glyph glyph-name="heart2" unicode="&#58895;" d="M1024 453.844C1024 367.482 986.782 289.814 927.51 236L928 236 608-84C576-116 544-148 512-148 480-148 448-116 416-84L96 236 96.49 236C37.218 289.814 0 367.482 0 453.844 0 616.302 131.698 748 294.156 748 380.518 748 458.186 710.782 512 651.51 565.814 710.782 643.482 748 729.844 748 892.3 748 1024 616.302 1024 453.844Z"  horiz-adv-x="1024" />

    
    <glyph glyph-name="left" unicode="&#58896;" d="M402.746 665.254l-320-320c-24.994-24.992-24.994-65.516 0-90.508l320-320c24.994-24.992 65.516-24.992 90.51 0 24.996 24.992 24.996 65.516 0 90.508L282.508 236 896 236c35.346 0 64 28.652 64 64 0 35.346-28.654 64-64 64L282.508 364l210.746 210.746C505.75 587.242 512 603.622 512 620s-6.248 32.758-18.744 45.254C468.26 690.248 427.74 690.248 402.746 665.254z"  horiz-adv-x="1024" />

    
    <glyph glyph-name="left2" unicode="&#58897;" d="M761.862-212C875.588-5.968 894.75 308.306 448 297.824L448 44 64 428 448 812l0-248.372C982.962 577.57 1042.57 91.414 761.862-212z"  horiz-adv-x="1024" />

    
    <glyph glyph-name="link" unicode="&#58898;" d="M953.395784 737.357536l-4.027998 4.041998c-94.147954 94.133954-248.193879 94.133954-342.325833 0L388.93606 523.263641c-94.133954-94.131954-94.133954-248.175879 0-342.309833l4.025998-4.025998c7.831996-7.847996 16.145992-14.923993 24.735988-21.45799l79.847961 79.849961c-9.301995 5.493997-18.125991 12.071994-26.115987 20.05999l-4.041998 4.041998c-51.113975 51.097975-51.113975 134.271934 0 185.389909L685.515915 662.923573c51.115975 51.117975 134.273934 51.117975 185.385909 0l4.041998-4.023998c51.099975-51.115975 51.099975-134.291934 0-185.389909l-98.685952-98.685952c17.131992-42.307979 25.247988-87.399957 24.537988-132.385935l152.603925 152.603925C1047.533739 489.177658 1047.533739 643.219582 953.395784 737.357536zM631.041942 423.06569c-7.831996 7.831996-16.145992 14.921993-24.735988 21.43999l-79.847961-79.831961c9.303995-5.495997 18.125991-12.073994 26.115987-20.06199l4.041998-4.039998c51.115975-51.115975 51.115975-134.271934 0-185.387909L338.486085-62.950073c-51.117975-51.101975-134.275934-51.101975-185.387909 0l-4.041998 4.041998c-51.097975 51.119975-51.097975 134.275934 0 185.387909l98.687952 98.685952c-17.133992 42.305979-25.245988 87.401957-24.537988 132.385935l-152.601925-152.597925c-94.135954-94.131954-94.135954-248.177879 0-342.323833l4.025998-4.031998c94.151954-94.127954 248.191879-94.127954 342.327833 0l218.109894 218.117893c94.133954 94.131954 94.133954 248.193879 0 342.325833L631.041942 423.06569z"  horiz-adv-x="1024" />

    
    <glyph glyph-name="lock" unicode="&#58899;" d="M786 398l-16 0 0 192c0 105.87-86.13 192-192 192l-128 0c-105.87 0-192-86.13-192-192l0-192-16 0c-26.4 0-48-21.6-48-48l0-480c0-26.4 21.6-48 48-48l544 0c26.4 0 48 21.6 48 48L834 350C834 376.4 812.4 398 786 398zM578-50l-128 0 27.84 139.2C461.032 100.732 450 120.074 450 142c0 35.346 28.654 64 64 64s64-28.654 64-64c0-21.926-11.032-41.268-27.84-52.8L578-50zM642 398 386 398l0 192c0 35.29 28.71 64 64 64l128 0c35.29 0 64-28.71 64-64L642 398z"  horiz-adv-x="1024" />

    
    <glyph glyph-name="mail" unicode="&#58900;" d="M928 716 96 716C43.2 716 0 672.8 0 620l0-640c0-52.8 43.2-96 96-96l832 0c52.8 0 96 43.2 96 96L1024 620C1024 672.8 980.8 716 928 716zM176.38 588l671.24 0L512 336 176.38 588zM512 172l384 412.378L895 12l-766.666-0.334L128 584.378"  horiz-adv-x="1026" />

    
    <glyph glyph-name="pen" unicode="&#58901;" d="M925.338 715.374C834.056 806.718 765.5 793.046 765.5 793.046L80.192 107.738 16.256-193.77l301.508 63.934 685.244 685.244C1003.008 555.41 1016.746 623.966 925.338 715.374zM299.786-93.562l-102.74-22.156c-9.938 18.548-21.902 37.096-43.742 58.998-21.84 21.902-40.45 33.74-58.998 43.678l22.218 102.802 29.688 29.688c0 0 55.958-1.14 119.072-64.252 63.176-63.176 64.314-119.134 64.314-119.134S299.786-93.562 299.786-93.562z"  horiz-adv-x="1024" />

    
    <glyph glyph-name="phone" unicode="&#58902;" d="M736 812 288 812c-52.8 0-96-43.2-96-96l0-832c0-52.8 43.2-96 96-96l448 0c52.8 0 96 43.2 96 96L832 716C832 768.8 788.8 812 736 812zM384 764l256 0 0-32L384 732 384 764zM512-148c-35.346 0-64 28.654-64 64s28.654 64 64 64 64-28.654 64-64S547.346-148 512-148zM768 44 256 44 256 684l512 0L768 44z"  horiz-adv-x="1024" />

    
    <glyph glyph-name="pic" unicode="&#58903;" d="M0 684l0-832 1024 0L1024 684 0 684zM960-84 64-84 64 620l896 0L960-84zM704 460A48 48 3600 1 0 896 460 48 48 3600 1 0 704 460zM896-20 128-20 320 492 576 172 704 268Z"  horiz-adv-x="1024" />

    
    <glyph glyph-name="play" unicode="&#58904;" d="M511.5 808C231.216 808 4 580.784 4 300.5S231.216-207 511.5-207 1019 20.216 1019 300.5 791.784 808 511.5 808zM511.5-111.844c-227.73 0-412.344 184.614-412.344 412.344S283.77 712.844 511.5 712.844s412.344-184.614 412.344-412.344S739.23-111.844 511.5-111.844zM384.624 522.532 765.25 300.5 384.624 78.468 384.624 522.532z"  horiz-adv-x="1024" />

    
    <glyph glyph-name="reduce" unicode="&#58905;" d="M0 396l0-192c0-17.672 14.328-32 32-32l960 0c17.672 0 32 14.328 32 32l0 192c0 17.672-14.328 32-32 32L32 428C14.328 428 0 413.672 0 396z"  horiz-adv-x="1024" />

    
    <glyph glyph-name="reload" unicode="&#58906;" d="M1024 428 640 428 783.53 571.53C711 644.056 614.57 684 512 684 409.43 684 313 644.056 240.47 571.53 167.944 499 128 402.57 128 300 128 197.43 167.944 101 240.47 28.47 313-44.056 409.43-84 512-84 614.57-84 711-44.056 783.528 28.472 789.584 34.526 795.388 40.764 800.984 47.14L897.304-37.142C803.458-144.308 665.64-212 512-212 229.23-212 0 17.23 0 300 0 582.77 229.23 812 512 812 653.386 812 781.368 754.674 874.016 662.016L1024 812 1024 428Z"  horiz-adv-x="1024" />

    
    <glyph glyph-name="right" unicode="&#58907;" d="M621.254-65.254l320 320c24.994 24.992 24.994 65.516 0 90.51l-320 320c-24.994 24.992-65.516 24.992-90.51 0-24.994-24.994-24.994-65.516 0-90.51L741.49 364 128 364c-35.346 0-64-28.654-64-64s28.654-64 64-64l613.49 0L530.744 25.254C518.248 12.758 512-3.622 512-20s6.248-32.758 18.744-45.254C555.738-90.248 596.26-90.248 621.254-65.254z"  horiz-adv-x="1024" />

    
    <glyph glyph-name="right2" unicode="&#58908;" d="M576 563.628 576 812l384-384L576 44 576 297.824C129.25 308.306 148.412-5.968 262.14-212-18.572 91.414 41.04 577.57 576 563.628z"  horiz-adv-x="1024" />

    
    <glyph glyph-name="rubbish" unicode="&#58909;" d="M800 684 224 684c-53.02 0-96-42.98-96-96l0-32 768 0 0 32C896 641.02 853.02 684 800 684zM632.32 748l14.116-101L377.564 647l14.114 101L632.32 748M640 812 384 812c-26.4 0-50.99-21.392-54.642-47.538l-18.714-133.924C306.99 604.392 325.6 583 352 583l320 0c26.4 0 45.01 21.392 41.358 47.538l-18.714 133.924C690.99 790.608 666.4 812 640 812L640 812zM816 492 208 492c-35.2 0-61.392-28.682-58.206-63.738l52.412-576.526C205.392-183.318 236.8-212 272-212l480 0c35.2 0 66.608 28.682 69.794 63.736l52.41 576.526C877.392 463.318 851.2 492 816 492zM384-84l-96 0-32 448 128 0L384-84zM576-84l-128 0L448 364l128 0L576-84zM736-84l-96 0L640 364l128 0L736-84z"  horiz-adv-x="1024" />

    
    <glyph glyph-name="sale" unicode="&#58910;" d="M992 748 768 748c-52.8 0-126.546-30.546-163.882-67.882L227.882 303.882c-37.334-37.334-37.334-98.428 0-135.764l280.236-280.234c37.334-37.336 98.428-37.336 135.764 0l376.234 376.234C1057.454 301.454 1088 375.2 1088 428L1088 652C1088 704.8 1044.8 748 992 748zM864 428c-53.02 0-96 42.98-96 96s42.98 96 96 96 96-42.98 96-96S917.02 428 864 428zM86.626 213.374 429.004-129.004C392.74-148.164 346.542-142.542 316.118-112.116L35.882 168.118C-1.452 205.454-1.452 266.548 35.882 303.882L412.118 680.118C449.454 717.454 523.2 748 576 748L86.626 258.628C74.182 246.182 74.182 225.82 86.626 213.374Z"  horiz-adv-x="1088" />

    
    <glyph glyph-name="search" unicode="&#58911;" d="M992.262-59.396 749.71 146.898c-25.074 22.566-51.89 32.926-73.552 31.926C733.414 245.892 768 332.902 768 428 768 640.078 596.078 812 384 812 171.924 812 0 640.078 0 428c0-212.078 171.922-384 384-384 95.098 0 182.108 34.586 249.176 91.844-1-21.662 9.36-48.478 31.926-73.552l206.294-242.552c35.322-39.246 93.022-42.554 128.22-7.356S1031.508-94.718 992.262-59.396zM384 172c-141.384 0-256 114.616-256 256S242.616 684 384 684s256-114.616 256-256S525.386 172 384 172z"  horiz-adv-x="1024" />

    
    <glyph glyph-name="set" unicode="&#58912;" d="M1024 203.906l0 192.188-146.774 24.462c-5.958 18.132-13.222 35.668-21.694 52.5l86.454 121.034-135.896 135.898-120.826-86.304c-16.91 8.554-34.538 15.888-52.768 21.902L608.094 812l-192.188 0-24.402-146.416c-18.23-6.014-35.858-13.348-52.766-21.902l-120.828 86.304-135.898-135.898 86.454-121.036c-8.47-16.83-15.734-34.366-21.692-52.498L0 396.094l0-192.188 147.118-24.52c5.96-17.968 13.21-35.348 21.642-52.03l-86.748-121.448 135.898-135.896 121.654 86.894c16.602-8.35 33.89-15.528 51.764-21.434L415.906-212l192.188 0 24.578 147.474c17.874 5.906 35.162 13.084 51.766 21.432l121.652-86.892 135.896 135.896-86.744 121.446c8.432 16.682 15.678 34.062 21.64 52.032L1024 203.906zM512 172c-70.692 0-128 57.306-128 128 0 70.692 57.308 128 128 128 70.694 0 128-57.308 128-128C640 229.306 582.694 172 512 172z"  horiz-adv-x="1024" />

    
    <glyph glyph-name="shoppingcart" unicode="&#58913;" d="M977.582 617.538c-33.984 9.708-69.41-9.97-79.12-43.956L893.44 556 296.498 556l-8.992 71.938C283.502 659.966 256.276 684 224 684L64 684C28.654 684 0 655.346 0 620s28.654-64 64-64l103.502 0 56.992-455.938C228.498 68.036 255.724 44 288 44l544 0c28.574 0 53.688 18.944 61.538 46.418l128 448C1031.248 572.404 1011.568 607.828 977.582 617.538zM512 300l0 64 127.996 0 0-64L512 300zM639.996 236l0-64L512 172l0 64L639.996 236zM512 428l0 64 127.996 0 0-64L512 428zM304.498 492 448 492l0-64-135.502 0L304.498 492zM320.498 364 448 364l0-64-119.502 0L320.498 364zM336.498 236 448 236l0-64-103.502 0L336.498 236zM783.724 172l-79.728 0 0 64 98.014 0L783.724 172zM820.296 300l-116.3 0 0 64 134.586 0L820.296 300zM856.868 428l-152.872 0 0 64 171.158 0L856.868 428zM256-116A48 48 3600 1 0 448-116 48 48 3600 1 0 256-116zM640-116A48 48 3600 1 0 832-116 48 48 3600 1 0 640-116z"  horiz-adv-x="1025" />

    
    <glyph glyph-name="star" unicode="&#58914;" d="M1024 414.95l-353.78 51.408L512 786.94l-158.216-320.582L0 414.95l256-249.538L195.568-186.94 512-20.582l316.432-166.358-60.434 352.352L1024 414.95zM512 58.502l-223.462-117.48 42.676 248.83-180.786 176.222 249.84 36.304L512 628.774l111.736-226.396 249.836-36.304-180.788-176.222 42.678-248.83L512 58.502z"  horiz-adv-x="1024" />

    
    <glyph glyph-name="star2" unicode="&#58915;" d="M1024 414.95 670.22 466.358 512 786.94l-158.216-320.582L0 414.95l256-249.538L195.568-186.94 512-20.582l316.432-166.358-60.434 352.352L1024 414.95z"  horiz-adv-x="1024" />

    
    <glyph glyph-name="strap" unicode="&#58916;" d="M192 812 192-212 512 108 832-212 832 812z"  horiz-adv-x="1024" />

    
    <glyph glyph-name="tel" unicode="&#58917;" d="M406.04 75.472c-64.354 63.64-128.354 63.286-128.708 127.286s63.29 128.354 126.934 192.708c63.642 64.354 127.286 128.708 191.286 129.064s64.356-63.644 128.708-127.288c64.356-63.644 255.29 129.418 254.934 193.418s-193.062 190.93-193.062 190.93c-128-0.71-386.766-133.648-510.574-258.838C151.75 397.564 21.69 137.34 22.402 9.34c0 0 129.062-191.286 193.062-190.93C279.462-181.234 470.394 11.828 406.04 75.472z"  horiz-adv-x="1024" />

    
    <glyph glyph-name="unlock" unicode="&#58918;" d="M768 748l-128 0c-105.87 0-192-86.13-192-192l0-192L48 364c-26.4 0-48-21.6-48-48l0-480c0-26.4 21.6-48 48-48l544 0c26.4 0 48 21.6 48 48L640 316c0 26.4-21.6 48-48 48l-16 0 0 192c0 35.29 28.71 64 64 64l128 0c35.29 0 64-28.71 64-64l0-192 128 0 0 192C960 661.87 873.87 748 768 748zM384-84l-128 0 27.84 139.2C267.032 66.732 256 86.074 256 108c0 35.346 28.654 64 64 64 35.346 0 64-28.654 64-64 0-21.926-11.032-41.268-27.84-52.8L384-84z"  horiz-adv-x="1024" />

    
    <glyph glyph-name="up2" unicode="&#58919;" d="M877.254 409.254l-320 320c-24.992 24.994-65.514 24.994-90.508 0l-320-320c-24.994-24.994-24.994-65.516 0-90.51 24.994-24.996 65.516-24.996 90.51 0L448 529.49 448-84c0-35.346 28.654-64 64-64 35.346 0 64 28.654 64 64L576 529.49l210.746-210.746C799.242 306.248 815.622 300 832 300s32.758 6.248 45.254 18.746C902.248 343.74 902.248 384.26 877.254 409.254z"  horiz-adv-x="1024" />

    
    <glyph glyph-name="wrong" unicode="&#58920;" d="M643.18 298.608 993.102 635.828c34.278 33.03 34.278 86.586 0 119.616l-15.514 14.952c-34.278 33.03-89.848 33.03-124.126 0L512.124 441.448 170.784 770.396c-34.276 33.03-89.848 33.03-124.122 0l-15.518-14.952c-34.274-33.03-34.274-86.586 0-119.616L380.84 298.828 30.918-38.39c-34.274-33.03-34.274-86.586 0-119.616l15.514-14.956c34.278-33.028 89.85-33.028 124.126 0l341.338 328.946 341.34-328.946c34.276-33.028 89.848-33.028 124.122 0l15.518 14.956c34.274 33.03 34.274 86.586 0 119.616L643.18 298.608z"  horiz-adv-x="1024" />

    
    <glyph glyph-name="yes2" unicode="&#58921;" d="M864 684 384 204 160 428 0 268 384-116 1024 524z"  horiz-adv-x="1024" />

    
    <glyph glyph-name="64x64zhuanhuan" unicode="&#58922;" d="M930.909091 812c-102.828218 0-186.181818-83.3536-186.181818-186.181818 0-6.907345 0.446836-13.7216 1.172945-20.442764l-447.097018-166.632727C267.506036 462.573964 228.5568 476.872727 186.181818 476.872727c-102.828218 0-186.181818-83.260509-186.181818-185.9584 0-102.697891 83.3536-185.9584 186.181818-185.9584 44.590545 0 85.476073 15.695127 117.517964 41.797818l205.358545-124.965236C505.055418 6.558836 502.690909-9.341091 502.690909-25.818182c0-102.828218 83.3536-186.181818 186.181818-186.181818 102.828218 0 186.181818 83.3536 186.181818 186.181818 0 102.828218-83.3536 186.181818-186.181818 186.181818-46.024145 0-88.064-16.774982-120.552727-44.4416l-203.291927 123.717818C369.701236 255.949382 372.363636 273.096727 372.363636 290.914327c0 18.469236-2.792727 36.286836-7.801018 53.117673l426.635636 158.999273C825.306764 464.2496 875.184873 439.636364 930.909091 439.636364c102.828218 0 186.181818 83.3536 186.181818 186.181818C1117.090909 728.6464 1033.737309 812 930.909091 812z"  horiz-adv-x="1118" />

    
    <glyph glyph-name="loading" unicode="&#58923;" d="M384 684A64 64 13680 1 0 640 684 64 64 13680 1 0 384 684zM655.53 571.53A64 64 13680 1 0 911.53 571.53 64 64 13680 1 0 655.53 571.53zM832 300A32 32 13680 1 0 960 300 32 32 13680 1 0 832 300zM719.53 28.47A32 32 13680 1 0 847.53 28.47 32 32 13680 1 0 719.53 28.47zM448.002-84A32 32 13680 1 0 576.002-84 32 32 13680 1 0 448.002-84zM176.472 28.47A32 32 13680 1 0 304.472 28.47 32 32 13680 1 0 176.472 28.47zM144.472 571.53A48 48 13680 1 0 336.472 571.53 48 48 13680 1 0 144.472 571.53zM56 300A36 36 13680 1 0 200 300 36 36 13680 1 0 56 300z"  horiz-adv-x="1024" />

    
    <glyph glyph-name="31xuanzhong" unicode="&#58925;" d="M820.113403 691.760362c-169.888272 169.918971-446.339558 169.918971-616.22783 0-169.921018-169.890318-169.921018-446.339558 0-616.22783 169.888272-169.921018 446.339558-169.921018 616.22783 0C990.035444 245.420805 990.035444 521.869021 820.113403 691.760362zM769.710456 497.188922 477.206566 185.787636c-1.832741-1.704828-3.759627-2.842745-5.183046-3.664459-1.579985-1.043772-2.685155-1.928932-4.297886-2.592035-3.697205-1.579985-7.614421-2.368954-11.722996-2.368954-3.76065 0-7.458879 0.694825-11.06194 2.085498l-3.476171 2.02103c-1.865487 0.980327-3.886517 2.023076-5.815449 3.729951l0 0.063445c-0.125867 0.094144-0.252757 0.220011-0.3776 0.346901l-0.980327 0.946558L268.257673 349.957673c-5.752004 5.626137-9.005095 13.20986-9.069563 21.268396-0.030699 8.119935 3.034103 15.737426 8.721639 21.519106 11.376095 11.502985 31.318286 11.598152 42.819225 0.252757l144.45195-142.30096 270.475178 287.952224c10.965749 11.661597 31.126928 12.294001 42.757826 1.359974 5.909593-5.593392 9.322319-13.115716 9.543354-21.23565C778.178315 510.714983 775.271102 503.03507 769.710456 497.188922z"  horiz-adv-x="1024" />

    
    <glyph glyph-name="31paishexuanzhong" unicode="&#58926;" d="M508.532527 481.378841c-68.293409 0-123.827213-55.196113-123.827213-123.056664 0-67.861574 55.533804-123.088386 123.827213-123.088386 68.26271 0 123.82619 55.226812 123.82619 123.088386C632.358717 426.182728 576.795237 481.378841 508.532527 481.378841zM934.809143 139.173992c-0.215918-0.584308-0.584308-1.140986-0.89437-1.663896l0 4.807493L933.914774 591.183689c0 28.67611-23.452131 52.005444-52.266387 52.005444l-156.432819 0-1.940189 0-0.89437 1.725294-20.463054 40.679491c-2.341325 5.208629-23.267936 49.710169-51.7752 49.710169L372.28647 735.304088c-29.153994 0-50.633191-47.213301-51.52756-49.232285l-20.709671-41.157375-0.89437-1.725294-1.940189 0-156.463518 0c-28.813233 0-52.267411-23.329335-52.267411-52.005444l0-506.464937c0-28.692482 23.454178-52.021817 52.267411-52.021817l740.898247 0c28.814256 0 52.266387 23.329335 52.266387 52.021817l0 52.236712c0.525979 0.73985 1.139963 1.417279 1.602498 2.218528L934.809143 139.173992zM508.532527 180.285319c-98.680487 0-178.99058 79.881328-178.99058 178.036859 0 98.154507 80.310094 178.004113 178.99058 178.004113 98.679463 0 178.960905-79.849606 178.960905-178.004113C687.493431 260.166647 607.21199 180.285319 508.532527 180.285319zM782.475689 488.666828c-22.960944 0-41.668005 18.706037-41.668005 41.681308 0 23.00597 18.707061 41.697681 41.668005 41.697681 22.989597 0 41.695634-18.691711 41.695634-41.697681C824.171324 507.372865 805.465287 488.666828 782.475689 488.666828zM872.802928 140.00594 872.864326 140.00594 872.864326 140.375354Z"  horiz-adv-x="1024" />

    
    <glyph glyph-name="31paishe" unicode="&#58927;" d="M508.532527 536.326291c-98.680487 0-178.99058-79.849606-178.99058-178.004113 0-98.155531 80.310094-178.036859 178.99058-178.036859 98.679463 0 178.960905 79.881328 178.960905 178.036859C687.493431 456.477708 607.21199 536.326291 508.532527 536.326291M508.532527 235.233791c-68.293409 0-123.827213 55.226812-123.827213 123.088386 0 67.859527 55.533804 123.056664 123.827213 123.056664 68.26271 0 123.82619-55.196113 123.82619-123.056664C632.358717 290.460604 576.795237 235.233791 508.532527 235.233791M782.475689 572.044794c-22.960944 0-41.668005-18.691711-41.668005-41.697681 0-22.975271 18.707061-41.681308 41.668005-41.681308 22.989597 0 41.695634 18.706037 41.695634 41.681308C824.171324 553.353083 805.465287 572.044794 782.475689 572.044794M935.517271 139.173992l-0.708128 0c-0.215918-0.584308-0.584308-1.140986-0.89437-1.663896l0 4.807493L933.914774 591.183689c0 28.67611-23.452131 52.005444-52.266387 52.005444l-156.432819 0-1.940189 0-0.89437 1.725294-20.463054 40.679491c-2.341325 5.208629-23.267936 49.710169-51.7752 49.710169L372.28647 735.304088c-29.153994 0-50.633191-47.213301-51.52756-49.232285l-20.709671-41.157375-0.89437-1.725294-1.940189 0-156.463518 0c-28.813233 0-52.267411-23.329335-52.267411-52.005444l0-506.464937c0-28.692482 23.454178-52.021817 52.267411-52.021817l740.898247 0c28.814256 0 52.266387 23.329335 52.266387 52.021817l0 52.236712C934.43973 137.695315 935.054737 138.372743 935.517271 139.173992M875.670232 107.739049c0-9.400091-7.704472-17.072841-17.197684-17.072841L163.909605 90.666208c-9.460466 0-17.195637 7.67275-17.195637 17.072841L146.713968 572.044794c0 9.41544 7.735172 17.043165 17.195637 17.043165l160.054299 0 9.091052 7.79657 35.224246 54.717206c4.100388 7.073092 17.968234 25.703405 31.836079 25.703405l222.230384 0c16.70138 0 31.988552-25.919323 32.171724-26.164916l35.195593-54.764278 7.858992-5.993504 160.993694 0.568958c9.490142 0 17.195637-7.656377 17.195637-17.072841l0-424.25661c0-0.153496-0.091074-0.277316-0.091074-0.431835L875.670232 107.739049zM872.802928 140.00594 872.864326 140.00594 872.864326 140.375354Z"  horiz-adv-x="1024" />

    
    <glyph glyph-name="31saoma" unicode="&#58928;" d="M903.825478 362.400053l-783.637654 0c-16.641005 0-30.147624 13.494339-30.147624 30.133298 0 16.625656 13.507642 30.148647 30.147624 30.148647l783.637654 0c16.670681 0 30.133298-13.522991 30.133298-30.148647C933.958776 375.894392 920.49616 362.400053 903.825478 362.400053M813.426609 0.715547 647.261125 0.715547c-16.670681 0-30.163997 13.462616-30.163997 30.132274 0 16.670681 13.493316 30.163997 30.163997 30.163997l166.166507 0c16.641005 0 30.102598 13.492292 30.102598 30.132274L843.530231 241.83821c0 16.671705 13.492292 30.133298 30.162974 30.133298 16.672728 0 30.133298-13.461593 30.133298-30.133298l0-150.694117C903.825478 41.282474 863.258551 0.715547 813.426609 0.715547M382.300544 0.715547 210.602044 0.715547c-49.861618 0-90.413196 40.566928-90.413196 90.428545L120.188848 241.83821c0 16.671705 13.507642 30.133298 30.147624 30.133298 16.641005 0 30.117948-13.461593 30.117948-30.133298l0-150.694117c0-16.641005 13.537318-30.132274 30.147624-30.132274L382.300544 61.011818c16.670681 0 30.163997-13.493316 30.163997-30.163997C412.463518 14.178163 398.970202 0.715547 382.300544 0.715547M150.336472 513.096217c-16.639982 0-30.147624 13.507642-30.147624 30.148647L120.188848 693.938981c0 49.861618 40.552601 90.413196 90.413196 90.413196L382.300544 784.352177c16.670681 0 30.163997-13.506619 30.163997-30.147624 0-16.610306-13.493316-30.117948-30.163997-30.117948L210.602044 724.086605c-16.610306 0-30.147624-13.537318-30.147624-30.147624l0-150.694117C180.45442 526.603859 166.976454 513.096217 150.336472 513.096217M873.692181 513.096217c-16.670681 0-30.162974 13.507642-30.162974 30.148647L843.529207 693.938981c0 16.610306-13.461593 30.147624-30.102598 30.147624L647.261125 724.086605c-16.670681 0-30.163997 13.507642-30.163997 30.117948 0 16.641005 13.493316 30.147624 30.163997 30.147624l166.166507 0c49.830919 0 90.39887-40.552601 90.39887-90.413196l0-150.694117C903.825478 526.603859 890.364909 513.096217 873.692181 513.096217"  horiz-adv-x="1024" />

    
    <glyph glyph-name="view" unicode="&#58924;" d="M507.418 7.964c-303.906 0-495.422 215.584-495.422 272.772 0 57.186 191.516 309.548 495.422 309.548s508.58-235.68 508.58-309.548C1015.998 206.866 811.324 7.964 507.418 7.964zM493.75 429.66c-44.352 0-80.306-35.902-80.306-80.188 0-44.294 35.954-80.194 80.306-80.194 44.348 0 80.304 35.902 80.304 80.194C574.052 393.758 538.098 429.66 493.75 429.66zM734.876 469.804c29.32-38.928 49.212-78.41 49.212-130.836 0-128.644-104.602-232.928-233.636-232.928-129.03 0-233.63 104.284-233.63 232.928 0 79.488 15.73 128.964 76.694 170.998-192.558-28.644-313.89-183.282-313.89-225.584 0-46.318 159.466-215.118 424.322-215.118s438.268 155.286 438.268 215.118C942.216 323.264 896.93 404.786 734.876 469.804z"  horiz-adv-x="1024" />

    
    <glyph glyph-name="trend-chart-o" unicode="&#59856;" d="M422.016 343.552l-23.381333 23.381333-91.136-91.136-30.165334 30.208L397.994667 426.666667l0.64-0.597334 0.597333 0.597334 52.949333-52.949334L633.173333 554.666667l0.341334-0.384 0.426666 0.384 178.176-178.218667-30.165333-30.165333-148.437333 148.394666-181.333334-181.333333-30.208 30.122667 0.042667 0.085333zM213.333333 85.333333h597.333334v-42.666666H170.666667V682.666667h42.666666v-597.333334z"  horiz-adv-x="1024" />

    
    <glyph glyph-name="view-list-o" unicode="&#59860;" d="M170.666667 597.333333h682.666666v-42.666666H170.666667V597.333333z m0-426.666666h682.666666v-42.666667H170.666667v42.666667z m0 213.333333h682.666666v-42.666667H170.666667v42.666667z"  horiz-adv-x="1024" />

    
    <glyph glyph-name="arrow-down" unicode="&#59864;" d="M490.496 264.96L243.498667 512 213.333333 481.834667l276.693334-276.693334 0.469333 0.426667 0.469333-0.426667 276.693334 276.693334L737.493333 512l-246.997333-247.04z"  horiz-adv-x="1024" />

    
    <glyph glyph-name="arrow-left" unicode="&#59865;" d="M396.928 358.570667l247.04-247.04-30.208-30.122667L337.066667 358.101333l0.426666 0.426667-0.426666 0.512L613.76 635.733333l30.165333-30.165333-246.997333-247.04z"  horiz-adv-x="1024" />

    
    <glyph glyph-name="arrow-right" unicode="&#59866;" d="M626.773333 358.570667l-247.04-247.04 30.165334-30.122667 276.693333 276.693333-0.426667 0.426667 0.426667 0.512L409.898667 635.733333l-30.165334-30.165333 247.04-247.04z"  horiz-adv-x="1024" />

    
    <glyph glyph-name="arrow-up" unicode="&#59867;" d="M490.496 452.138667l247.04-247.04 30.122667 30.208L490.965333 512l-0.426666-0.426667-0.512 0.426667L213.333333 235.306667l30.165334-30.165334 247.04 246.997334z"  horiz-adv-x="1024" />

    
    <glyph glyph-name="arrow-down1" unicode="&#59868;" d="M533.162667 307.626667L371.498667 469.333333 341.333333 439.168l191.36-191.36 0.469334 0.426667 0.469333-0.426667 191.36 191.36-30.165333 30.165333-161.664-161.706666z"  horiz-adv-x="1024" />

    
    <glyph glyph-name="arrow-right1" unicode="&#59869;" d="M584.106667 358.570667l-161.706667-161.706667 30.165333-30.122667 191.36 191.36-0.426666 0.426667 0.426666 0.512L452.565333 550.4l-30.165333-30.165333 161.706667-161.706667z"  horiz-adv-x="1024" />

    
    <glyph glyph-name="arrow-left1" unicode="&#59870;" d="M439.594667 358.570667l161.706666-161.706667-30.208-30.122667L379.733333 358.101333l0.426667 0.426667-0.426667 0.512L571.093333 550.4l30.165334-30.165333-161.664-161.706667z"  horiz-adv-x="1024" />

    
    <glyph glyph-name="arrow-up1" unicode="&#59871;" d="M533.162667 409.472l161.706666-161.706667 30.122667 30.208L533.632 469.333333l-0.426667-0.426666-0.512 0.426666L341.333333 277.973333l30.165334-30.165333 161.706666 161.664z"  horiz-adv-x="1024" />

    


  </font>
</defs>
</svg>
